<svg xmlns="http://www.w3.org/2000/svg" width="75" height="60" viewBox="0 0 75 60" fill="none">
  <path d="M73.8577 18.1213L62.1836 10.8522C62.0828 9.72335 61.9569 8.74844 61.8309 7.96167C58.1439 5.73818 49.5436 1.23134 37.7435 1.17147C25.6579 1.11161 16.8477 5.74673 13.1607 7.96167C13.0515 8.68002 12.9339 9.55232 12.8415 10.5529C8.93614 12.8704 5.03916 15.1795 1.13379 17.497C5.30792 20.0968 9.49045 22.7051 13.6646 25.3049C14.4205 28.8796 15.6551 32.7621 17.6036 36.773C23.5918 49.0877 33.0991 56.0147 37.458 58.8197C37.458 58.8283 37.4664 58.8454 37.4748 58.8539C37.4748 58.8539 37.4916 58.8539 37.4916 58.8454C37.4916 58.8454 37.5084 58.8454 37.5084 58.8539C37.5084 58.8454 37.5168 58.8283 37.5252 58.8197C41.8841 56.0147 51.3913 49.0877 57.3796 36.773C59.2777 32.8733 60.4955 29.1019 61.2514 25.6128C65.4507 23.1242 69.65 20.627 73.8493 18.1384L73.8577 18.1213Z" fill="#2D2D2D"/>
  <path d="M37.4832 60C37.374 60 37.2648 59.9829 37.1557 59.9487C36.9877 59.8974 36.8281 59.8033 36.7021 59.6836C30.5291 55.6813 22.0885 48.5661 16.5957 37.2691C14.8404 33.6688 13.5218 29.8888 12.6736 26.0234L0.545913 18.4721C0.201568 18.2583 0 17.882 0 17.4715C0 17.061 0.218365 16.6847 0.56271 16.4795L11.7665 9.83466C11.8421 9.14196 11.9345 8.45781 12.0353 7.77366C12.0857 7.43158 12.2872 7.13227 12.5812 6.95268C17.8555 3.77138 26.4474 0 37.4916 0C37.5756 0 37.6596 0 37.752 0C48.7038 0.0598632 57.2032 3.81414 62.4104 6.95268C62.7044 7.13227 62.9059 7.43158 62.9563 7.77366C63.0739 8.56043 63.1747 9.35576 63.2587 10.1596L74.4541 17.1294C74.7984 17.3432 75 17.7195 75 18.13C75 18.5405 74.7816 18.9168 74.4373 19.122L62.2676 26.3398C61.411 30.0941 60.1176 33.7714 58.4127 37.2691C52.9199 48.5747 44.4709 55.6898 38.2895 59.6921C38.1719 59.8033 38.0207 59.8888 37.8611 59.9401C37.7772 59.9658 37.6932 59.9829 37.6008 59.9914C37.5588 59.9914 37.5168 59.9914 37.4748 59.9914L37.4832 60ZM3.35946 17.5057L14.2693 24.2959C14.5381 24.4584 14.7228 24.732 14.79 25.0399C15.5963 28.8883 16.8897 32.6511 18.6366 36.2343C23.7682 46.7959 31.6125 53.5519 37.5 57.443C43.3875 53.5519 51.2318 46.7959 56.3634 36.2343C58.0599 32.7452 59.3365 29.0764 60.1428 25.3392C60.21 25.0228 60.4031 24.7491 60.6803 24.5867L71.6321 18.0872L61.5873 11.8273C61.2766 11.6391 61.0834 11.3056 61.0498 10.9464C60.9826 10.1853 60.8903 9.42417 60.7895 8.66306C55.7923 5.72976 47.8639 2.36032 37.7436 2.30901C37.6596 2.30901 37.5756 2.30901 37.5 2.30901C27.2872 2.30901 19.2749 5.69555 14.2189 8.66306C14.1265 9.32155 14.051 9.98004 13.9838 10.6471C13.9502 11.0148 13.7402 11.3483 13.4211 11.5365L3.36786 17.4971L3.35946 17.5057Z" fill="#77EEFF"/>
  <path d="M55.9267 12.4599V12.2547L55.7504 12.152C53.6675 10.8521 50.9379 9.76605 47.8724 9.00494C45.4956 8.41486 42.934 8.03002 40.2633 7.85043C39.1462 7.77347 37.9956 7.73926 36.8618 7.73926C33.4855 7.73926 30.2185 8.06423 27.1697 8.70562C24.163 9.33846 21.5175 10.245 19.3002 11.3909L19.1154 11.485V11.6988C18.9979 13.8795 19.0483 16.1287 19.2666 18.3949C19.4094 19.8744 19.6194 21.3795 19.9049 22.8761C20.1569 24.2016 20.4592 25.5614 20.8204 26.8955C20.8372 26.9468 20.8456 26.9981 20.8624 27.0494C21.0387 27.6908 21.2319 28.3493 21.4335 28.9992L21.5511 29.367L21.9038 29.2301C22.6765 28.9223 23.4995 28.6401 24.3394 28.3921C25.7504 27.9645 27.2621 27.6138 28.8327 27.3487C31.4027 26.904 34.0986 26.6817 36.8618 26.6817C37.5589 26.6817 38.2728 26.6988 38.9699 26.7244C41.4391 26.8271 43.8327 27.1093 46.0919 27.5711C47.2257 27.802 48.3344 28.0756 49.3842 28.3921C50.6608 28.7769 51.8534 29.213 52.9284 29.7005L53.2812 29.863L53.4072 29.4781C53.6843 28.6144 53.9447 27.7507 54.1714 26.904C54.2218 26.733 54.2638 26.5534 54.3058 26.3824C54.5578 25.4245 54.7761 24.4411 54.9693 23.4747L55.0197 23.2011L54.7845 23.0728C52.7689 21.9696 50.3416 21.0802 47.5869 20.4217C45.2857 19.8744 42.8248 19.5066 40.2717 19.3356C39.1546 19.2586 38.004 19.2159 36.845 19.2159C33.6787 19.2159 30.6048 19.5066 27.7241 20.0711C27.5477 18.7626 27.4301 17.4456 27.3713 16.1458C30.3528 15.5215 33.5443 15.205 36.8534 15.205C38.0964 15.205 39.3478 15.2478 40.5824 15.3419C43.144 15.5386 45.6048 15.9234 47.8892 16.4964C50.686 17.1976 53.1888 18.1897 55.1289 19.3527L55.5992 19.6349L55.658 19.0705C55.9015 16.8385 55.9939 14.6064 55.9184 12.4513L55.9267 12.4599Z" fill="url(#paint0_linear_1268_2106)"/>
  <path d="M50.4338 32.8306C48.5609 32.2833 46.5453 31.8471 44.4624 31.5393C41.968 31.1715 39.356 30.9834 36.702 30.9834C36.6432 30.9834 36.5761 30.9834 36.5257 30.9834C34.4092 30.9834 32.3011 31.1117 30.2771 31.3597C27.6903 31.6675 25.2379 32.1636 22.9786 32.8221C22.8611 32.8563 22.7435 32.8905 22.6175 32.9332L22.2144 33.0615L22.3991 33.4549C23.3566 35.5244 24.4484 37.4999 25.6242 39.33C25.7586 39.5438 25.9014 39.7491 26.0357 39.9629C26.9512 41.3312 27.9254 42.6311 28.9333 43.8112C30.1763 45.2821 31.4949 46.6077 32.8555 47.7622C32.8722 47.7707 32.8806 47.7878 32.8974 47.7964C32.9058 47.7964 32.9142 47.8135 32.931 47.8221L33.0318 47.9161H33.0402C34.4008 49.0621 35.8118 50.0455 37.2395 50.8323L37.4075 50.9264L37.5755 50.8323C39.0033 50.0455 40.4142 49.0621 41.7748 47.9161L42.1192 47.6254L41.7748 47.3346C41.7076 47.2833 41.6488 47.2234 41.5817 47.1721L41.5229 47.1208C40.1959 45.9748 38.9025 44.6664 37.6763 43.2126C36.8196 42.2035 35.9965 41.1088 35.2239 39.98C35.0307 39.6978 34.8459 39.4156 34.6612 39.1333C35.3499 39.1077 36.0385 39.0991 36.7104 39.0991C38.071 39.0991 39.4232 39.1504 40.7334 39.2445C42.3963 39.3642 44.0425 39.5695 45.613 39.8431H45.6466C46.5033 39.9885 47.3767 40.1681 48.225 40.3734L48.4602 40.4247L48.5945 40.2194C48.9053 39.7576 49.1824 39.33 49.4428 38.9281C50.4506 37.3203 51.3913 35.61 52.2311 33.8397L52.4159 33.4549L52.0212 33.3181C51.5089 33.1385 50.9798 32.976 50.4422 32.8221L50.4338 32.8306Z" fill="url(#paint1_linear_1268_2106)"/>
  <path d="M19.6196 18.3692C19.7623 19.8315 19.9723 21.3196 20.2495 22.8162C20.493 24.1331 20.8038 25.4672 21.1649 26.8013C21.1817 26.8526 21.1901 26.904 21.2069 26.9467C21.3833 27.5967 21.5765 28.2466 21.778 28.8794C22.5591 28.5716 23.3822 28.2894 24.2472 28.0328C25.6582 27.6052 27.1784 27.2546 28.7825 26.9809C31.3021 26.5448 34.0233 26.3139 36.8704 26.3139C37.5843 26.3139 38.2982 26.331 38.9953 26.3566C41.5233 26.4593 43.9337 26.7586 46.1677 27.2118C47.3267 27.4427 48.4438 27.7249 49.4936 28.0414C50.7786 28.4262 51.988 28.8709 53.0798 29.3669C53.3486 28.5288 53.6089 27.6822 53.8441 26.8099C53.8945 26.6388 53.9365 26.4678 53.9785 26.2968C54.2304 25.3304 54.4488 24.3726 54.642 23.4148C52.6767 22.3373 50.2579 21.4479 47.5283 20.7979C45.2943 20.2591 42.8502 19.8914 40.2719 19.7204C39.1632 19.6434 38.0294 19.6092 36.8704 19.6092C33.5193 19.6092 30.3279 19.9342 27.4471 20.5328C27.2287 18.9507 27.086 17.3943 27.0188 15.8635C30.0087 15.2135 33.3514 14.8544 36.8704 14.8544C38.147 14.8544 39.3984 14.9057 40.6246 14.9912C43.2534 15.1879 45.731 15.5898 47.9902 16.1542C50.8458 16.8726 53.3486 17.8646 55.3223 19.0533C55.5658 16.8042 55.6498 14.6064 55.5826 12.4855C53.5249 11.2027 50.871 10.1423 47.8055 9.38115C45.4958 8.80817 42.951 8.41479 40.2551 8.2352C39.1464 8.15823 38.021 8.12402 36.8704 8.12402C33.4354 8.12402 30.1851 8.4661 27.2455 9.08183C24.264 9.70612 21.6184 10.6212 19.46 11.7415C19.3508 13.8794 19.4012 16.1029 19.6196 18.3863V18.3692Z" fill="url(#paint2_linear_1268_2106)"/>
  <path d="M22.71 33.3007C23.6758 35.3788 24.7508 37.3286 25.9098 39.133C26.0442 39.3468 26.1786 39.5521 26.3214 39.7573C27.2284 41.1171 28.1859 42.3913 29.1937 43.5715C30.4283 45.0338 31.7301 46.3423 33.0739 47.4882C33.0991 47.5139 33.1243 47.531 33.1495 47.5566C33.1495 47.5566 33.2167 47.6165 33.2503 47.6422C34.5941 48.771 35.9798 49.7374 37.3992 50.5241C38.8102 49.7374 40.2044 48.7796 41.5481 47.6422C41.481 47.5908 41.4222 47.531 41.355 47.4797C41.3298 47.4626 41.313 47.4455 41.2878 47.4284C39.944 46.2739 38.6422 44.9483 37.3992 43.4774C36.5425 42.4597 35.7111 41.3736 34.9216 40.2106C34.6109 39.7488 34.3001 39.287 33.9978 38.8081C34.888 38.7653 35.7867 38.7396 36.7021 38.7396C38.0795 38.7396 39.4317 38.791 40.7503 38.885C42.4468 39.0133 44.0929 39.21 45.6635 39.4837C46.5621 39.6376 47.444 39.8172 48.2923 40.0224C48.5778 39.6034 48.855 39.1758 49.1321 38.7396C50.1232 37.1576 51.0554 35.4728 51.9037 33.6855C51.3998 33.5144 50.879 33.3434 50.3415 33.1895C48.5106 32.6507 46.5201 32.2146 44.4121 31.9067C41.9765 31.5475 39.3897 31.3594 36.7021 31.3594C36.6433 31.3594 36.5845 31.3594 36.5258 31.3594C34.3841 31.3594 32.3012 31.4962 30.3107 31.7357C27.7156 32.0435 25.2715 32.5395 23.0627 33.1895C22.9451 33.2237 22.8275 33.2579 22.71 33.2921V33.3007Z" fill="url(#paint3_diamond_1268_2106)"/>
  <path d="M22.71 33.3007C23.6758 35.3788 24.7508 37.3286 25.9098 39.133C26.0442 39.3468 26.1786 39.5521 26.3214 39.7573C27.2284 41.1171 28.1859 42.3913 29.1937 43.5715C30.4283 45.0338 31.7301 46.3423 33.0739 47.4882C33.0991 47.5139 33.1243 47.531 33.1495 47.5566C33.1495 47.5566 33.2167 47.6165 33.2503 47.6422C34.5941 48.771 35.9798 49.7374 37.3992 50.5241C38.8102 49.7374 40.2044 48.7796 41.5481 47.6422C41.481 47.5908 41.4222 47.531 41.355 47.4797C41.3298 47.4626 41.313 47.4455 41.2878 47.4284C39.944 46.2739 38.6422 44.9483 37.3992 43.4774C36.5425 42.4597 35.7111 41.3736 34.9216 40.2106C34.6109 39.7488 34.3001 39.287 33.9978 38.8081C34.888 38.7653 35.7867 38.7396 36.7021 38.7396C38.0795 38.7396 39.4317 38.791 40.7503 38.885C42.4468 39.0133 44.0929 39.21 45.6635 39.4837C46.5621 39.6376 47.444 39.8172 48.2923 40.0224C48.5778 39.6034 48.855 39.1758 49.1321 38.7396C50.1232 37.1576 51.0554 35.4728 51.9037 33.6855C51.3998 33.5144 50.879 33.3434 50.3415 33.1895C48.5106 32.6507 46.5201 32.2146 44.4121 31.9067C41.9765 31.5475 39.3897 31.3594 36.7021 31.3594C36.6433 31.3594 36.5845 31.3594 36.5258 31.3594C34.3841 31.3594 32.3012 31.4962 30.3107 31.7357C27.7156 32.0435 25.2715 32.5395 23.0627 33.1895C22.9451 33.2237 22.8275 33.2579 22.71 33.2921V33.3007Z" fill="url(#paint4_linear_1268_2106)"/>
  <path d="M27.1699 13.6398C30.4202 12.8872 35.1822 12.1689 40.9017 12.6734C47.2763 13.2379 52.2819 15.1107 55.4734 16.5987C55.423 17.4112 55.3726 18.2236 55.3138 19.036C54.0708 18.3433 52.3239 17.4796 50.157 16.7099C49.4096 16.4448 46.0081 15.2903 40.7925 14.8798C37.643 14.6318 32.9734 14.6062 27.3463 15.7692L27.1699 13.6312V13.6398Z" fill="#88BAA5"/>
  <path d="M33.998 38.8C36.148 38.6974 38.5836 38.7145 41.2628 38.9454C43.8748 39.1763 46.2264 39.5697 48.2925 40.023C48.6956 39.3901 49.0904 38.7658 49.4935 38.133C47.2259 37.56 44.5299 37.0555 41.4644 36.816C38.2057 36.5595 35.2998 36.6535 32.8726 36.893C33.2505 37.5344 33.6284 38.1672 34.0064 38.8086L33.998 38.8Z" fill="#88BAA5"/>
  <path d="M21.1899 27.2547C21.3831 27.802 21.5763 28.3407 21.7694 28.8881C25.2381 27.6737 30.5712 26.2797 37.181 26.3396C44.0679 26.3995 49.569 28.0243 53.0712 29.3584C53.2812 28.6828 53.4912 28.0072 53.6927 27.3316C50.1401 25.9633 44.3954 24.2529 37.181 24.2786C30.2353 24.3043 24.6922 25.9291 21.1899 27.2632V27.2547Z" fill="#88BAA5"/>
  <path d="M14.5882 14.5127V20.9694C12.8161 19.8662 11.0524 18.763 9.28027 17.6598L14.5882 14.5127Z" fill="url(#paint5_linear_1268_2106)"/>
  <path d="M60.4028 14.5127V20.9694C62.1749 19.8662 63.9387 18.763 65.7108 17.6598L60.4028 14.5127Z" fill="url(#paint6_linear_1268_2106)"/>
  <defs>
    <linearGradient id="paint0_linear_1268_2106" x1="37.4989" y1="7.73926" x2="29.0872" y2="38.286" gradientUnits="userSpaceOnUse">
      <stop offset="0.177511" stop-color="white"/>
      <stop offset="1" stop-color="white" stop-opacity="0"/>
    </linearGradient>
    <linearGradient id="paint1_linear_1268_2106" x1="35.8515" y1="30.8333" x2="37.3477" y2="50.924" gradientUnits="userSpaceOnUse">
      <stop stop-color="white"/>
      <stop offset="1" stop-color="white" stop-opacity="0"/>
    </linearGradient>
    <linearGradient id="paint2_linear_1268_2106" x1="35.0278" y1="18.3331" x2="52.9291" y2="34.8024" gradientUnits="userSpaceOnUse">
      <stop stop-color="white"/>
      <stop offset="0.5625" stop-color="#B5B5B5"/>
      <stop offset="1" stop-color="#1994A5"/>
    </linearGradient>
    <radialGradient id="paint3_diamond_1268_2106" cx="0" cy="0" r="1" gradientUnits="userSpaceOnUse" gradientTransform="translate(92.7198 47.9163) rotate(-167.16) scale(76.1233 118.549)">
      <stop/>
      <stop offset="0.536458" stop-color="#F4F4F4"/>
      <stop offset="1" stop-color="#A4F0FB"/>
    </radialGradient>
    <linearGradient id="paint4_linear_1268_2106" x1="23" y1="32.9995" x2="51.9454" y2="52.0395" gradientUnits="userSpaceOnUse">
      <stop stop-color="white"/>
      <stop offset="0.5625" stop-color="#B5B5B5"/>
      <stop offset="1" stop-color="#1994A5"/>
    </linearGradient>
    <linearGradient id="paint5_linear_1268_2106" x1="11.5858" y1="15.0002" x2="14.9803" y2="15.7445" gradientUnits="userSpaceOnUse">
      <stop stop-color="#4FE9FF"/>
      <stop offset="1" stop-color="#5EBAC7"/>
    </linearGradient>
    <linearGradient id="paint6_linear_1268_2106" x1="62.7084" y1="15.0002" x2="66.1029" y2="15.7445" gradientUnits="userSpaceOnUse">
      <stop stop-color="#4FE9FF"/>
      <stop offset="1" stop-color="#5EBAC7"/>
    </linearGradient>
  </defs>
</svg>